<svg width="192" height="192" viewBox="0 0 192 192" fill="none" xmlns="http://www.w3.org/2000/svg">
  <!-- Background -->
  <rect width="192" height="192" fill="#0f172a" rx="24"/>
  
  <!-- Tower body -->
  <rect x="48" y="24" width="96" height="144" fill="#4ECDC4" rx="6"/>
  
  <!-- Windows Row 1 -->
  <rect x="60" y="36" width="18" height="18" fill="#45B7AF" rx="2"/>
  <rect x="87" y="36" width="18" height="18" fill="#45B7AF" rx="2"/>
  <rect x="114" y="36" width="18" height="18" fill="#45B7AF" rx="2"/>
  
  <!-- Windows Row 2 -->
  <rect x="60" y="66" width="18" height="18" fill="#45B7AF" rx="2"/>
  <rect x="87" y="66" width="18" height="18" fill="#45B7AF" rx="2"/>
  <rect x="114" y="66" width="18" height="18" fill="#45B7AF" rx="2"/>
  
  <!-- Windows Row 3 -->
  <rect x="60" y="96" width="18" height="18" fill="#45B7AF" rx="2"/>
  <rect x="87" y="96" width="18" height="18" fill="#45B7AF" rx="2"/>
  <rect x="114" y="96" width="18" height="18" fill="#45B7AF" rx="2"/>
  
  <!-- Windows Row 4 -->
  <rect x="60" y="126" width="18" height="18" fill="#45B7AF" rx="2"/>
  <rect x="87" y="126" width="18" height="18" fill="#45B7AF" rx="2"/>
  <rect x="114" y="126" width="18" height="18" fill="#45B7AF" rx="2"/>
  
  <!-- Roof -->
  <polygon points="24,24 96,0 168,24" fill="#654321"/>
</svg>
