<svg width="64" height="64" viewBox="0 0 64 64" fill="none" xmlns="http://www.w3.org/2000/svg">
  <!-- Simple tower icon -->
  <rect x="16" y="8" width="32" height="48" fill="#4ECDC4" rx="2"/>
  <rect x="20" y="12" width="6" height="6" fill="#45B7AF"/>
  <rect x="29" y="12" width="6" height="6" fill="#45B7AF"/>
  <rect x="38" y="12" width="6" height="6" fill="#45B7AF"/>
  
  <rect x="20" y="22" width="6" height="6" fill="#45B7AF"/>
  <rect x="29" y="22" width="6" height="6" fill="#45B7AF"/>
  <rect x="38" y="22" width="6" height="6" fill="#45B7AF"/>
  
  <rect x="20" y="32" width="6" height="6" fill="#45B7AF"/>
  <rect x="29" y="32" width="6" height="6" fill="#45B7AF"/>
  <rect x="38" y="32" width="6" height="6" fill="#45B7AF"/>
  
  <rect x="20" y="42" width="6" height="6" fill="#45B7AF"/>
  <rect x="29" y="42" width="6" height="6" fill="#45B7AF"/>
  <rect x="38" y="42" width="6" height="6" fill="#45B7AF"/>
  
  <!-- Roof -->
  <polygon points="8,8 32,0 56,8" fill="#654321"/>
</svg>
